{
	"asset":{
		"generator":"Khronos glTF Blender I/O v4.1.62",
		"version":"2.0"
	},
	"scene":0,
	"scenes":[
		{
			"name":"Scene",
			"nodes":[
				0,
				1,
				2
			]
		}
	],
	"nodes":[
		{
			"mesh":0,
			"name":"Leaf",
			"translation":[
				0,
				2.49153995513916,
				0
			]
		},
		{
			"mesh":1,
			"name":"Snow",
			"translation":[
				0,
				2.4309797286987305,
				0
			]
		},
		{
			"mesh":2,
			"name":"Trunk",
			"scale":[
				0.30000001192092896,
				1,
				0.30000001192092896
			],
			"translation":[
				0,
				1.0877045392990112,
				0
			]
		}
	],
	"materials":[
		{
			"doubleSided":true,
			"name":"mat2",
			"pbrMetallicRoughness":{
				"baseColorFactor":[
					0.800000011920929,
					0.800000011920929,
					0.800000011920929,
					1
				],
				"metallicFactor":0,
				"roughnessFactor":0.690034806728363
			}
		},
		{
			"doubleSided":true,
			"name":"mat1.002",
			"pbrMetallicRoughness":{
				"baseColorFactor":[
					0.10124331712722778,
					0.19598782062530518,
					0.03251779451966286,
					1
				],
				"metallicFactor":0,
				"roughnessFactor":0.690034806728363
			}
		},
		{
			"doubleSided":true,
			"name":"mat1.003",
			"pbrMetallicRoughness":{
				"baseColorFactor":[
					0.16794833540916443,
					0.07524973154067993,
					0,
					1
				],
				"metallicFactor":0,
				"roughnessFactor":0.690034806728363
			}
		}
	],
	"meshes":[
		{
			"name":"Cylinder.001",
			"primitives":[
				{
					"attributes":{
						"POSITION":0,
						"NORMAL":1
					},
					"indices":2,
					"material":0
				}
			]
		},
		{
			"name":"Cylinder.004",
			"primitives":[
				{
					"attributes":{
						"POSITION":3,
						"NORMAL":4
					},
					"indices":2,
					"material":1
				}
			]
		},
		{
			"name":"Cylinder.003",
			"primitives":[
				{
					"attributes":{
						"POSITION":5,
						"NORMAL":6
					},
					"indices":7,
					"material":2
				}
			]
		}
	],
	"accessors":[
		{
			"bufferView":0,
			"componentType":5126,
			"count":401,
			"max":[
				1.8418315649032593,
				5.2005934715271,
				1.8573964834213257
			],
			"min":[
				-1.842012643814087,
				-1.2166402339935303,
				-1.82644784450531
			],
			"type":"VEC3"
		},
		{
			"bufferView":1,
			"componentType":5126,
			"count":401,
			"type":"VEC3"
		},
		{
			"bufferView":2,
			"componentType":5123,
			"count":612,
			"type":"SCALAR"
		},
		{
			"bufferView":3,
			"componentType":5126,
			"count":401,
			"max":[
				1.8418315649032593,
				5.2005934715271,
				1.8573964834213257
			],
			"min":[
				-1.842012643814087,
				-1.2166402339935303,
				-1.82644784450531
			],
			"type":"VEC3"
		},
		{
			"bufferView":4,
			"componentType":5126,
			"count":401,
			"type":"VEC3"
		},
		{
			"bufferView":5,
			"componentType":5126,
			"count":80,
			"max":[
				1.0916270017623901,
				0.5916501879692078,
				1.0916270017623901
			],
			"min":[
				-1.0916270017623901,
				-1,
				-1.0916270017623901
			],
			"type":"VEC3"
		},
		{
			"bufferView":6,
			"componentType":5126,
			"count":80,
			"type":"VEC3"
		},
		{
			"bufferView":7,
			"componentType":5123,
			"count":132,
			"type":"SCALAR"
		}
	],
	"bufferViews":[
		{
			"buffer":0,
			"byteLength":4812,
			"byteOffset":0,
			"target":34962
		},
		{
			"buffer":0,
			"byteLength":4812,
			"byteOffset":4812,
			"target":34962
		},
		{
			"buffer":0,
			"byteLength":1224,
			"byteOffset":9624,
			"target":34963
		},
		{
			"buffer":0,
			"byteLength":4812,
			"byteOffset":10848,
			"target":34962
		},
		{
			"buffer":0,
			"byteLength":4812,
			"byteOffset":15660,
			"target":34962
		},
		{
			"buffer":0,
			"byteLength":960,
			"byteOffset":20472,
			"target":34962
		},
		{
			"buffer":0,
			"byteLength":960,
			"byteOffset":21432,
			"target":34962
		},
		{
			"buffer":0,
			"byteLength":264,
			"byteOffset":22392,
			"target":34963
		}
	],
	"buffers":[
		{
			"byteLength":22656,
			"uri":"tree_snow.bin"
		}
	]
}
