{
	"asset":{
		"generator":"Khronos glTF Blender I/O v4.1.62",
		"version":"2.0"
	},
	"scene":0,
	"scenes":[
		{
			"name":"Scene",
			"nodes":[
				0,
				1
			]
		}
	],
	"nodes":[
		{
			"mesh":0,
			"name":"Trunk",
			"scale":[
				0.30000001192092896,
				1,
				0.30000001192092896
			],
			"translation":[
				0,
				1.0096272230148315,
				0
			]
		},
		{
			"mesh":1,
			"name":"Leaf",
			"translation":[
				0,
				2.352902412414551,
				0
			]
		}
	],
	"materials":[
		{
			"doubleSided":true,
			"name":"mat1",
			"pbrMetallicRoughness":{
				"baseColorFactor":[
					0.16794833540916443,
					0.07524973154067993,
					0,
					0
				],
				"metallicFactor":0,
				"roughnessFactor":0.690034806728363
			}
		},
		{
			"doubleSided":true,
			"name":"mat1.001",
			"pbrMetallicRoughness":{
				"baseColorFactor":[
					0.10124331712722778,
					0.19598782062530518,
					0.03251779451966286,
					0
				],
				"metallicFactor":0,
				"roughnessFactor":0.690034806728363
			}
		}
	],
	"meshes":[
		{
			"name":"Cylinder.002",
			"primitives":[
				{
					"attributes":{
						"POSITION":0,
						"NORMAL":1
					},
					"indices":2,
					"material":0
				}
			]
		},
		{
			"name":"Cylinder.001",
			"primitives":[
				{
					"attributes":{
						"POSITION":3,
						"NORMAL":4
					},
					"indices":5,
					"material":1
				}
			]
		}
	],
	"accessors":[
		{
			"bufferView":0,
			"componentType":5126,
			"count":80,
			"max":[
				1.0916270017623901,
				0.5916501879692078,
				1.0916270017623901
			],
			"min":[
				-1.0916270017623901,
				-1,
				-1.0916270017623901
			],
			"type":"VEC3"
		},
		{
			"bufferView":1,
			"componentType":5126,
			"count":80,
			"type":"VEC3"
		},
		{
			"bufferView":2,
			"componentType":5123,
			"count":132,
			"type":"SCALAR"
		},
		{
			"bufferView":3,
			"componentType":5126,
			"count":400,
			"max":[
				1.8418315649032593,
				5.2005934715271,
				1.8573964834213257
			],
			"min":[
				-1.842012643814087,
				-1.2166402339935303,
				-1.82644784450531
			],
			"type":"VEC3"
		},
		{
			"bufferView":4,
			"componentType":5126,
			"count":400,
			"type":"VEC3"
		},
		{
			"bufferView":5,
			"componentType":5123,
			"count":612,
			"type":"SCALAR"
		}
	],
	"bufferViews":[
		{
			"buffer":0,
			"byteLength":960,
			"byteOffset":0,
			"target":34962
		},
		{
			"buffer":0,
			"byteLength":960,
			"byteOffset":960,
			"target":34962
		},
		{
			"buffer":0,
			"byteLength":264,
			"byteOffset":1920,
			"target":34963
		},
		{
			"buffer":0,
			"byteLength":4800,
			"byteOffset":2184,
			"target":34962
		},
		{
			"buffer":0,
			"byteLength":4800,
			"byteOffset":6984,
			"target":34962
		},
		{
			"buffer":0,
			"byteLength":1224,
			"byteOffset":11784,
			"target":34963
		}
	],
	"buffers":[
		{
			"byteLength":13008,
			"uri":"tree.bin"
		}
	]
}
